<svg id="Capa_1" xmlns="http://www.w3.org/2000/svg" viewBox="0 0 792 233.33"><style>.st0{fill:#675e66}.st1{fill:#f1f0f0}.st2{font-family:&apos;Diner-Fatt&apos;}.st3{font-size:166.2859px}.st4{fill:#8e828b}.st5{fill:#ea5297}.st6{font-family:&apos;LatterSlant&apos;}.st7{font-size:61.036px}.st8{fill:#3c3c3b}.st9{font-family:&apos;Megrim&apos;}.st10{font-size:34.4986px}</style><path class="st0" d="M572.35 174.15H.32V42.67h553.69c10.13 0 18.34 8.21 18.34 18.34v113.14z"/><text transform="matrix(1.0047 0 0 1 528.7 174.424)" class="st1 st2 st3">a</text><text transform="matrix(-1.0047 0 0 1 622.245 174.424)" class="st0 st2 st3">a</text><text transform="matrix(1.0047 0 0 1 393.392 175.01)" class="st4 st2 st3">Cre</text><text transform="matrix(1.0047 0 0 1 620.472 175.01)" class="st0 st2 st3">ndo</text><text transform="matrix(.8558 0 0 1 664.664 201.516)" class="st5 st6 st7">Studio</text><text transform="matrix(.8449 0 0 1 115.794 201.298)" class="st8 st9 st10">Tecnología reflejando su mejor imagen</text><path class="st0" d="M116.89 58.55c-12.66-6.71-26.82-8.94-39.39-5.4a55.618 55.618 0 0 0-17.52 8.19c-5.33 3.68-10.14 8.12-14.32 13.1-4.14 5.01-7.73 10.46-10.6 16.24-2.93 5.75-5.07 11.84-6.48 17.98l-.51 2.31c-.16.77-.25 1.55-.38 2.32-.11.77-.27 1.54-.35 2.32l-.24 2.32c-.22 1.54-.2 3.09-.3 4.62-.07.79 0 1.49 0 2.22.04.73-.02 1.45.08 2.19.47 5.88 1.69 11.94 3.94 17.57 1.05 2.85 2.38 5.55 3.77 8.18 1.52 2.53 3.11 5.03 4.94 7.21.85 1.17 1.87 2.12 2.8 3.18.48.51 1.01.93 1.51 1.4.51.46.99.96 1.55 1.33.53.4 1.07.81 1.59 1.23.53.41 1.1.71 1.65 1.08.55.36 1.11.75 1.61.98.5.29 1.04.53 1.58.77 2.16.97 4.63 1.53 7.29 1.88 2.68.32 5.57.3 8.57.03 6.01-.56 12.37-2.12 18.72-4.26 6.37-2.12 12.73-4.81 19.24-7.66 6.39-2.87 12.68-5.74 18.91-8.96 1.57-.77 3.1-1.63 4.66-2.43 1.56-.81 3.11-1.63 4.63-2.5 1.54-.85 3.1-1.67 4.63-2.54l4.58-2.64c6.07-3.6 12.12-7.31 18.04-11.27 5.89-3.99 11.75-8.07 17.43-12.42s11.25-8.85 16.68-13.55c2.69-2.36 5.43-4.71 8.02-7.14l7.98-7.39c5.4-4.9 10.91-9.74 16.92-14.15 3.02-2.18 6.12-4.32 9.5-6.15 3.35-1.88 6.95-3.52 10.98-4.54 2-.55 4.14-.83 6.35-.92 2.22-.04 4.52.2 6.78.8.56.15 1.11.36 1.67.55.56.19 1.11.39 1.64.67l1.61.79c.52.31 1.03.65 1.55.98 2.02 1.38 3.88 3.17 5.25 5.17 1.4 1.98 2.48 4.1 3.24 6.15.43 1.05.71 2.05 1.05 3.07.27.99.57 2.02.77 2.99.92 3.94 1.45 7.64 2.08 11.06.62 3.43 1.29 6.56 2.26 9.08.5 1.21 1 2.34 1.61 3.15.61.82 1.18 1.5 1.87 1.99.29.3.73.46 1.06.72l.63.29c.21.1.39.22.66.29.49.15.91.39 1.5.5l.81.23c.28.07.61.11.91.17 2.44.42 4.97.52 7.6.18 2.63-.36 5.38-.99 8.14-2.04 2.76-1.05 5.57-2.34 8.33-3.9 2.77-1.53 5.47-3.33 8.17-5.24 2.68-1.92 5.33-3.96 7.9-6.17 2.57-2.19 5.14-4.44 7.62-6.82 2.47-2.38 4.92-4.82 7.33-7.31 19.21-20.16 35.69-43.11 47.38-69.5l2.05.57c-1.86 14.58-6.68 28.8-13.06 42.2-3.2 6.71-6.86 13.2-10.87 19.49-4.03 6.26-8.36 12.32-13.08 18.14-4.69 5.84-9.8 11.4-15.35 16.67-5.62 5.2-11.63 10.18-18.61 14.29-3.48 2.05-7.14 3.97-11.13 5.46-3.99 1.47-8.27 2.64-12.81 3.04-4.52.43-9.29.17-13.86-1.04-.58-.15-1.14-.28-1.72-.46l-1.75-.62c-1.15-.38-2.35-.96-3.5-1.54-.58-.27-1.15-.63-1.72-.99-.57-.36-1.13-.71-1.68-1.1-1.07-.87-2.18-1.67-3.12-2.7-2-1.92-3.52-4.24-4.69-6.53-1.19-2.32-1.89-4.61-2.47-6.83-.98-4.41-1.27-8.47-1.35-12.2-.1-3.74-.08-7.24-.33-10.41-.04-.82-.15-1.55-.22-2.32-.12-.71-.2-1.49-.36-2.14-.26-1.4-.67-2.6-1.18-3.67-.48-1.1-1.15-1.97-1.96-2.79l-.64-.6-.76-.52c-.24-.2-.52-.34-.8-.48-.28-.14-.55-.32-.84-.44-1.17-.49-2.45-.87-3.84-1.02-1.39-.11-2.86-.14-4.39.09-3.05.37-6.2 1.43-9.28 2.79a66.86 66.86 0 0 0-8.99 5c-2.9 1.92-5.75 3.99-8.47 6.24-2.74 2.23-5.42 4.56-8.01 7-2.62 2.42-5.17 4.92-7.73 7.47l-7.79 7.6c-10.42 10.07-20.84 20.23-31.85 29.91-11 9.68-22.58 18.9-35.08 26.96l-4.72 2.98c-1.58.98-3.21 1.89-4.82 2.84-3.19 1.9-6.56 3.63-9.81 5.35-6.5 3.36-13.27 6.65-20.43 9.5-7.16 2.83-14.75 5.28-23.05 6.52-4.16.59-8.5.88-13 .59-4.5-.31-9.18-1.18-13.69-2.94-1.13-.44-2.25-.9-3.34-1.45-1.14-.52-2.1-1.1-3.09-1.68-.98-.59-2-1.14-2.93-1.78l-2.74-2c-.94-.65-1.75-1.4-2.59-2.14-.83-.74-1.7-1.46-2.48-2.24-1.51-1.59-3.12-3.13-4.45-4.83-.68-.84-1.4-1.67-2.05-2.53l-1.84-2.64c-.3-.44-.62-.88-.91-1.33l-.82-1.36-1.63-2.74-1.45-2.81c-.49-.93-.96-1.88-1.37-2.84l-1.26-2.88c-.39-.97-.72-1.96-1.08-2.94-2.8-7.87-4.41-16.12-4.54-24.64-.06-1.05.03-2.14.05-3.21.04-1.07.04-2.17.17-3.17.22-2.05.34-4.12.72-6.13l.5-3.03c.18-1.01.44-1.99.66-2.99.24-.99.44-1.99.72-2.97l.85-2.92c4.66-15.54 13.42-29.4 24.84-40.4a81.537 81.537 0 0 1 19.37-13.76c7.08-3.63 14.88-5.96 22.8-6.73 7.91-.85 15.93.29 23.2 2.81 7.28 2.58 13.8 6.63 19.24 11.6l-1.27 1.79z"/><path class="st5" d="M117.19 58.12c-6.11-3.74-12.76-6.47-19.61-7.81-6.84-1.37-13.86-1.34-20.55.15a58.098 58.098 0 0 0-18.84 7.83c-5.77 3.67-11 8.18-15.58 13.27-4.56 5.11-8.47 10.79-11.68 16.81-3.25 6-5.73 12.4-7.34 18.96l-.59 2.45c-.19.82-.31 1.66-.46 2.48-.14.83-.32 1.65-.43 2.49l-.31 2.5c-.26 1.66-.27 3.34-.41 5-.08.84-.03 1.64-.04 2.46.02.82-.04 1.62.05 2.45.38 6.54 1.7 13.14 4.09 19.34 1.12 3.13 2.58 6.1 4.12 9 1.68 2.81 3.42 5.6 5.52 8.06.97 1.31 2.13 2.4 3.21 3.59.55.58 1.17 1.07 1.75 1.61.59.53 1.16 1.09 1.81 1.53l1.88 1.42c.63.47 1.32.83 1.97 1.26.66.41 1.32.85 1.98 1.16.65.36 1.33.65 2.02.94 2.75 1.17 5.77 1.82 8.9 2.15 3.14.31 6.39.21 9.68-.14 6.58-.73 13.25-2.52 19.8-4.82 6.57-2.3 13.03-5.15 19.54-8.11 6.45-2.97 12.77-6.12 19.02-9.51 1.57-.82 3.1-1.73 4.65-2.59 1.55-.87 3.09-1.75 4.61-2.67 1.53-.91 3.08-1.79 4.59-2.72l4.54-2.81c6.02-3.82 11.96-7.8 17.77-11.98a409.744 409.744 0 0 0 33.53-26.96c2.68-2.4 5.38-4.78 7.96-7.25 2.61-2.47 5.23-4.97 7.91-7.41 5.37-4.87 10.85-9.66 16.82-13.91 2.99-2.11 6.07-4.15 9.36-5.89 3.28-1.75 6.78-3.22 10.57-4.08 1.88-.47 3.86-.68 5.86-.72 2.01 0 4.06.29 6.05.86.5.15.97.35 1.46.53.49.18.97.37 1.43.63l1.39.73c.45.28.88.59 1.32.89 1.72 1.24 3.28 2.8 4.43 4.58 1.18 1.75 2.09 3.64 2.72 5.53.68 1.89 1.14 3.79 1.51 5.66.75 3.75 1.14 7.4 1.64 10.9.49 3.51 1.04 6.86 2.02 9.87 1 2.98 2.43 5.47 4.42 7.19.45.48 1.06.8 1.57 1.22.29.17.6.33.89.5.3.17.58.35.92.46.66.26 1.27.58 2 .76l1.05.33c.36.1.74.16 1.11.24 2.97.62 6.06.76 9.17.4 6.23-.69 12.47-3.23 18.34-6.58 2.94-1.67 5.79-3.58 8.58-5.62 2.78-2.05 5.5-4.2 8.12-6.52 5.28-4.57 10.3-9.53 15.07-14.75 19.08-20.9 35-45 44.77-72.1l1.02.28c-2.88 14.23-8.22 27.99-15.03 40.91-3.39 6.48-7.18 12.76-11.31 18.81-4.13 6.05-8.51 11.93-13.27 17.52-9.51 11.16-20.06 21.78-33.21 29.62-3.3 1.93-6.75 3.69-10.43 5.07-3.68 1.36-7.58 2.4-11.64 2.79-4.05.41-8.26.19-12.3-.82-.51-.13-1.01-.24-1.52-.39l-1.52-.52c-1.01-.31-2.01-.81-3-1.28-.5-.22-.98-.52-1.45-.82-.48-.3-.96-.58-1.42-.9-.88-.72-1.83-1.36-2.6-2.2-1.67-1.56-2.95-3.48-3.98-5.4-1.04-1.94-1.68-3.95-2.24-5.91-.99-3.94-1.38-7.76-1.6-11.41-.23-3.66-.35-7.21-.76-10.58-.2-1.69-.48-3.32-.9-4.86-.39-1.56-.96-2.99-1.69-4.29-1.41-2.62-3.79-4.53-6.68-5.66-1.45-.51-2.98-.85-4.57-.96-1.59-.07-3.23-.02-4.88.28-3.3.53-6.55 1.76-9.69 3.25a69.422 69.422 0 0 0-9.13 5.27c-5.87 3.97-11.35 8.6-16.59 13.48-2.62 2.44-5.2 4.94-7.79 7.45l-7.84 7.49c-2.63 2.47-5.26 4.95-7.94 7.38-2.64 2.48-5.33 4.89-8.01 7.33-5.41 4.81-10.87 9.58-16.48 14.2-11.23 9.2-22.94 17.94-35.45 25.55-6.21 3.87-12.72 7.3-19.23 10.62-6.49 3.25-13.17 6.37-20.13 9.04-6.96 2.66-14.24 4.88-21.97 5.95-3.87.5-7.85.72-11.89.41-4.04-.33-8.16-1.11-12.09-2.67-.98-.39-1.96-.79-2.9-1.28-.98-.44-1.84-.98-2.72-1.5-.87-.53-1.78-1.02-2.61-1.6l-2.45-1.81c-.84-.58-1.57-1.27-2.33-1.93-.74-.68-1.53-1.32-2.24-2.03-1.37-1.45-2.83-2.85-4.04-4.42-.62-.77-1.27-1.53-1.87-2.32l-1.7-2.43c-.28-.41-.57-.81-.84-1.22l-.76-1.26-1.51-2.53c-1.82-3.46-3.57-6.97-4.81-10.65-2.66-7.31-4.18-15.01-4.39-22.87-.07-.98.01-1.97.02-2.96.03-.98.02-1.99.13-2.94.19-1.92.28-3.86.62-5.75l.44-2.85c.16-.95.4-1.88.59-2.82.21-.94.39-1.88.64-2.81l.77-2.77c4.19-14.73 12.25-28.11 22.9-38.85 5.32-5.38 11.46-9.96 18.11-13.59l1.24-.69 1.29-.61 2.57-1.22c.86-.39 1.76-.71 2.64-1.06.89-.33 1.75-.73 2.67-.98 1.82-.54 3.61-1.16 5.48-1.52.93-.2 1.85-.43 2.77-.61l2.81-.41c7.5-1.09 15.19-.33 22.32 1.81 7.14 2.16 13.69 5.79 19.36 10.34l-.64.87z"/><path class="st5" d="M117.4 58.26c1.17-2.56 2.88-4.99 5.23-6.82 2.33-1.82 5.27-3.07 8.39-3.26 1.56-.1 3.15.04 4.7.43 1.54.4 3.03 1.07 4.39 1.95 2.72 1.76 4.8 4.58 5.9 7.54 1.73 4.44 5.96 7.6 10.71 9.09 2.38.74 4.9 1.12 7.38 1.03 2.48-.06 4.91-.6 7.02-1.63l.14-.07c1.23-.6 2.72-.09 3.32 1.14.54 1.11.18 2.43-.8 3.12-1.26.89-2.41 1.57-3.65 2.27-1.22.69-2.47 1.31-3.74 1.9-2.54 1.16-5.16 2.15-7.87 2.88-5.39 1.47-11.17 1.99-16.74.91-2.77-.54-5.47-1.44-7.97-2.71-1.26-.62-2.45-1.35-3.59-2.14-1.14-.79-2.23-1.65-3.25-2.58-2.06-1.83-3.86-3.91-5.44-6.11-1.59-2.2-2.95-4.53-4.13-6.94 3.08 4.38 6.63 8.42 10.84 11.49 4.2 3.06 9.04 5.08 14.07 5.62 5.02.57 10.13-.16 14.97-1.74 2.42-.8 4.79-1.77 7.06-2.93 1.14-.58 2.26-1.2 3.35-1.85 1.07-.64 2.2-1.37 3.11-2.05l2.66 4.19c-2.86 1.6-6.04 2.31-9.15 2.48-3.12.13-6.24-.28-9.2-1.25-2.96-.95-5.78-2.47-8.19-4.58-2.4-2.1-4.34-4.86-5.33-7.96-.72-2.33-1.97-4.35-3.84-5.84-1.84-1.49-4.19-2.42-6.69-2.59-2.49-.14-5.1.43-7.44 1.7-2.37 1.22-4.43 3.13-6.22 5.31z"/></svg>