<svg xmlns="http://www.w3.org/2000/svg" xmlns:xlink="http://www.w3.org/1999/xlink" viewBox="0 0 952.86 863.04"><defs><style>.cls-1{isolation:isolate;}.cls-2{fill:#8e828b;}.cls-3{mix-blend-mode:overlay;}.cls-4{fill:#f7dcec;}.cls-5{fill:url(#Degradado_sin_nombre_25);}.cls-6{fill:url(#Degradado_sin_nombre_27);}.cls-7{fill:url(#Degradado_sin_nombre_52);}.cls-8{fill:#f9eaf4;}.cls-9{opacity:0.67;mix-blend-mode:multiply;fill:url(#Degradado_sin_nombre_60);}.cls-10{fill:url(#Degradado_sin_nombre_54);}.cls-11{fill:url(#Degradado_sin_nombre_55);}.cls-12,.cls-19{opacity:0.3;}.cls-12{fill:url(#Degradado_sin_nombre_92);}.cls-13{fill:#f7e7f2;}.cls-14{opacity:0.8;fill:url(#Degradado_sin_nombre_110);}.cls-15,.cls-16,.cls-17{opacity:0.5;}.cls-15{fill:url(#Degradado_sin_nombre_110-2);}.cls-16{fill:url(#Degradado_sin_nombre_110-3);}.cls-17{fill:url(#Degradado_sin_nombre_112);}.cls-18{fill:url(#Degradado_sin_nombre_112-2);}.cls-19{fill:url(#Degradado_sin_nombre_92-2);}</style><linearGradient id="Degradado_sin_nombre_25" x1="624.88" y1="667.51" x2="663.49" y2="776.29" gradientUnits="userSpaceOnUse"><stop offset="0" stop-color="#380e26" stop-opacity="0"/><stop offset="0.26" stop-color="#380e26" stop-opacity="0.09"/><stop offset="0.58" stop-color="#380d26" stop-opacity="0.36"/><stop offset="0.93" stop-color="#390b25" stop-opacity="0.8"/><stop offset="1" stop-color="#390b25" stop-opacity="0.9"/></linearGradient><linearGradient id="Degradado_sin_nombre_27" x1="613.51" y1="638.63" x2="571.95" y2="534.66" gradientUnits="userSpaceOnUse"><stop offset="0.08" stop-color="#380e26" stop-opacity="0"/><stop offset="0.45" stop-color="#380d26" stop-opacity="0.41"/><stop offset="0.82" stop-color="#390b25" stop-opacity="0.9"/></linearGradient><linearGradient id="Degradado_sin_nombre_52" x1="495.85" y1="582" x2="209.08" y2="920.69" gradientUnits="userSpaceOnUse"><stop offset="0.16" stop-color="#ea5297"/><stop offset="0.32" stop-color="#e04f92"/><stop offset="0.6" stop-color="#c44886"/><stop offset="0.95" stop-color="#973d73"/><stop offset="1" stop-color="#913b70"/></linearGradient><linearGradient id="Degradado_sin_nombre_60" x1="532.37" y1="394.41" x2="362.43" y2="166" gradientUnits="userSpaceOnUse"><stop offset="0" stop-color="#380e26" stop-opacity="0"/><stop offset="0.3" stop-color="#380e26" stop-opacity="0.06"/><stop offset="0.55" stop-color="#380d26" stop-opacity="0.23"/><stop offset="0.77" stop-color="#390c25" stop-opacity="0.52"/><stop offset="0.97" stop-color="#390b25" stop-opacity="0.94"/><stop offset="1" stop-color="#390b25"/></linearGradient><linearGradient id="Degradado_sin_nombre_54" x1="750.46" y1="391.66" x2="614.45" y2="9.87" gradientUnits="userSpaceOnUse"><stop offset="0" stop-color="#ea5297"/><stop offset="0.2" stop-color="#e55195"/><stop offset="0.42" stop-color="#d84d8f"/><stop offset="0.65" stop-color="#c14785"/><stop offset="0.89" stop-color="#a13f77"/><stop offset="1" stop-color="#913b70"/></linearGradient><linearGradient id="Degradado_sin_nombre_55" x1="184.74" y1="567.75" x2="380.91" y2="149.4" gradientUnits="userSpaceOnUse"><stop offset="0" stop-color="#ea5297"/><stop offset="0.33" stop-color="#d04b8c"/><stop offset="1" stop-color="#913b70"/></linearGradient><linearGradient id="Degradado_sin_nombre_92" x1="94.78" y1="366.91" x2="67.62" y2="473.31" gradientUnits="userSpaceOnUse"><stop offset="0" stop-color="#f7dcec" stop-opacity="0"/><stop offset="1" stop-color="#f7dcec"/></linearGradient><linearGradient id="Degradado_sin_nombre_110" x1="297.32" y1="163.68" x2="178.24" y2="207.08" gradientUnits="userSpaceOnUse"><stop offset="0" stop-color="#380e26" stop-opacity="0"/><stop offset="1" stop-color="#380e26" stop-opacity="0.4"/></linearGradient><linearGradient id="Degradado_sin_nombre_110-2" x1="198.07" y1="788.55" x2="124.18" y2="815.48" xlink:href="#Degradado_sin_nombre_110"/><linearGradient id="Degradado_sin_nombre_110-3" x1="518.45" y1="603.29" x2="444.12" y2="552.65" xlink:href="#Degradado_sin_nombre_110"/><linearGradient id="Degradado_sin_nombre_112" x1="800.9" y1="664.49" x2="842.37" y2="711.77" gradientUnits="userSpaceOnUse"><stop offset="0" stop-color="#380e26" stop-opacity="0"/><stop offset="0.8" stop-color="#380e26" stop-opacity="0.31"/><stop offset="1" stop-color="#380e26" stop-opacity="0.4"/></linearGradient><linearGradient id="Degradado_sin_nombre_112-2" x1="480.77" y1="365.64" x2="563.63" y2="460.11" xlink:href="#Degradado_sin_nombre_112"/><linearGradient id="Degradado_sin_nombre_92-2" x1="862.14" y1="350.97" x2="913.97" y2="410.06" xlink:href="#Degradado_sin_nombre_92"/></defs><g class="cls-1"><g id="Capa_18" data-name="Capa 18"><path class="cls-2" d="M596.06,550.7c93.35,2.46,58.05,178.89,138,225.46l-72-41.84c-80-46.57-56-181.16-149.31-183.62Z"/><g class="cls-3"><path class="cls-4" d="M715.46,765.34l18.64,10.82c-80-46.57-44.69-223-138-225.46h-4.25C679,553,654,707.07,715.46,765.34Z"/></g><path class="cls-5" d="M596.06,550.7c93.35,2.46,58.05,178.89,138,225.46l-72-41.84c-80-46.57-56-181.16-149.31-183.62Z"/><path class="cls-6" d="M596.06,550.7c93.35,2.46,58.05,178.89,138,225.46l-72-41.84c-80-46.57-56-181.16-149.31-183.62Z"/><path class="cls-7" d="M512.76,550.7c-96.87-2.55-212.7,265.78-296.86,282.86q-3.94.8-7.92,1.37l76.75-7.09a135.49,135.49,0,0,0,14.1-2.11c84.17-17.08,200.36-277.58,297.23-275Z"/><g class="cls-3"><path class="cls-8" d="M294.58,825.73a135.49,135.49,0,0,1-14.1,2.11L213.33,834q-2.67.5-5.35.89l76.75-7.09a135.49,135.49,0,0,0,14.1-2.11c83.42-16.93,198.29-272.94,294.63-275h-4.25C492.87,552.79,378,808.8,294.58,825.73Z"/></g><path class="cls-2" d="M573.12,467c-201.4-72.63-164.45-201.82-164.45-201.82S345.78,154.29,288.42,155.56h83.3C429.08,154.29,492,265.18,492,265.18s74.82,32.05,69.25,76.06C552.34,411.36,573.12,467,573.12,467Z"/><path class="cls-9" d="M573.12,467c-201.4-72.63-164.45-201.82-164.45-201.82S345.78,154.29,288.42,155.56h83.3C429.08,154.29,492,265.18,492,265.18s74.82,32.05,69.25,76.06C552.34,411.36,573.12,467,573.12,467Z"/><g class="cls-3"><path class="cls-4" d="M487.72,265.18s74.82,32.05,69.25,76.06c-8,62.79,7.87,114,11.27,124,1.61.6,3.23,1.2,4.88,1.79,0,0-20.78-55.64-11.9-125.76,5.57-44-69.25-76.06-69.25-76.06S429.08,154.29,371.72,155.56h-4.25C424.83,154.29,487.72,265.18,487.72,265.18Z"/></g><path class="cls-10" d="M737.55,30.65c30.39,14,56.31,31.16,78.23,50.82C1039.4,282,836,816.9,744.13,781a72.45,72.45,0,0,1-10-4.81l-72-41.84a72.44,72.44,0,0,0,10,4.8C764,775.05,956.1,282,732.48,81.47c-21.93-19.66-47.84-36.82-78.23-50.82l44.36,5a51.94,51.94,0,0,0,15.74-.6Z"/><g class="cls-3"><path class="cls-4" d="M718.6,35.09l20.18-3.86-1.23-.58-23.2,4.44a51.16,51.16,0,0,1-7.7.89A51.54,51.54,0,0,0,718.6,35.09ZM684.22,740.88c94.37,7,269.92-464.5,52.51-659.41-21.6-19.37-47.08-36.3-76.88-50.19l-5.6-.63c30.39,14,56.3,31.16,78.23,50.82C946.67,273.49,779.46,734,684.22,740.88Zm54.13,35.28L677,740.5a27.24,27.24,0,0,1-4.85-1.38,72.44,72.44,0,0,1-10-4.8l72,41.84a72.45,72.45,0,0,0,10,4.81,25.55,25.55,0,0,0,11.45,1.62,25,25,0,0,1-7.2-1.62A72.45,72.45,0,0,1,738.35,776.16Z"/></g><path class="cls-11" d="M371.72,155.56c-57.36,1.28-267.67,122.37-256.2,368.38,10.83,232.33,89,311.55,169.21,303.9L208,834.93c-82,11.73-164.65-72.67-175.76-311-11.48-246,198.84-367.1,256.2-368.38Z"/><path class="cls-12" d="M140.15,346.69c-23.44-4.22-38.23-7-62.66-12.89a32.3,32.3,0,0,1-4.1-1A359.24,359.24,0,0,0,38.9,430.54c26.69,7.1,44.77,10.91,71.46,16.76A360.41,360.41,0,0,1,140.15,346.69Z"/><g class="cls-3"><path class="cls-13" d="M272.31,828.3c-75.69-1.42-146.52-84-156.79-304.36-11.47-246,198.84-367.1,256.2-368.38h-4.25c-57.36,1.28-267.67,122.37-256.2,368.38C121.74,748.38,195,829.92,272.31,828.3Zm-68.58,6.63a103.9,103.9,0,0,1-12.53,1,102.89,102.89,0,0,0,16.78-1l76.75-7.09c-3.15.3-6.3.45-9.44.48Z"/></g><path class="cls-14" d="M158.71,224.66s62.6-56.78,125.46-69.1h76.5s-20.82,4.37-32.29,9.15C298.38,177.2,241.2,173.36,158.71,224.66Z"/><path class="cls-15" d="M253.92,828.9s-43.34,5.37-63.09,6-66.29-7.63-100.38-67.85c0,0,44.93,69.78,126.51,49.07A98.42,98.42,0,0,0,253.92,828.9Z"/><path class="cls-16" d="M573.12,552H512.76S478,546.4,413.25,620.17c0,0,51.84-57.14,129.27-53.32l12-6.7a44.23,44.23,0,0,1,4.64-2.27Z"/><path class="cls-17" d="M707.76,736.92s-16.47,9.12-26.14,6.29L748.38,781s58.78,33.39,142.09-229.09C890.47,551.88,785.62,810.43,707.76,736.92Z"/><path class="cls-18" d="M465.2,311.28s-27.2,63.81,0,96S568.87,467,568.87,467s-53.54-55-46.74-77.86S499.19,307.24,465.2,311.28Z"/><path class="cls-19" d="M914.94,307.85s-18.28,25.53-71.81,17.24c0,0,5.52,52.26-3.19,103.89,0,0,46.85,10.59,74.41-12.07C914.35,416.91,919.51,345.1,914.94,307.85Z"/></g></g></svg>